# xmcd
#
# Track frame offsets:
#	150
#	15631
#	31294
#	49471
#	67362
#	86562
#	102881
#	118812
#	135627
#	151390
#	166575
#	185552
#	202886
#
# Disc length: 2958 seconds
#
# Revision: 0
# Processed by: cddbd v1.5.2PL0 Copyright (c) Steve Scherf et al.
# Submitted via: EasyCDDAExtractor 16.0.6.1
#
DISCID=b00b8c0d
DTITLE=Στέλιος Ρόκκος - Ταυτότητα
DYEAR=2012
DGENRE=Σύνχρωνα
TTITLE0=Θυμάμαι (Στέλιος Ρόκκος)
TTITLE1=Κόλαση (Στέλιος Ρόκκος)
TTITLE2=Ταυτότητα (Στέλιος Ρόκκος)
TTITLE3=Ποιος (Στέλιος Ρόκκος)
TTITLE4=Είμαι δικός σου (Στέλιος Ρόκκος)
TTITLE5=Πες μου τι έγινε (Στέλιος Ρόκκος)
TTITLE6=Δε συγκρίνεσαι (Στέλιος Ρόκκος)
TTITLE7=Φεγγάρια (Στέλιος Ρόκκος)
TTITLE8=Δεν τελειώνει ο δρόμος (Στέλιος Ρόκκος)
TTITLE9=Χίλιες φορές (Στέλιος Ρόκκος)
TTITLE10=Σ'έχασα (Στέλιος Ρόκκος)
TTITLE11=Δημόσιος κίνδυνος (Στέλιος Ρόκκος)
TTITLE12=Ψυχές (Στέλιος Ρόκκος)
EXTD=
EXTT0=
EXTT1=
EXTT2=
EXTT3=
EXTT4=
EXTT5=
EXTT6=
EXTT7=
EXTT8=
EXTT9=
EXTT10=
EXTT11=
EXTT12=
PLAYORDER=
